<svg width="48" height="48" viewBox="0 0 48 48" fill="none" xmlns="http://www.w3.org/2000/svg">
<rect width="48" height="48"/>
<g clip-path="url(#clip0_0_1)">
<path fill-rule="evenodd" clip-rule="evenodd" d="M24 48C37.2548 48 48 37.2548 48 24C48 10.7452 37.2548 0 24 0C10.7452 0 0 10.7452 0 24C0 37.2548 10.7452 48 24 48ZM41.2666 16.0713C42.8359 19.4888 39.91 22.851 36.1592 23.1219C30.8449 23.5057 28.0106 29.5689 31.1243 33.8925C33.3219 36.9441 32.6186 41.3453 28.99 42.333C27.1674 42.8291 25.2689 43.054 23.3556 42.9891C19.1523 42.8464 15.1152 41.3132 11.8769 38.6298C8.63855 35.9463 6.38209 32.2642 5.46114 28.1606C4.54018 24.057 5.00678 19.7638 6.78782 15.9538C8.56885 12.1439 11.5636 9.03254 15.3028 7.10741C19.0421 5.18228 23.3143 4.55218 27.4501 5.31587C31.5859 6.07955 35.3514 8.19385 38.1565 11.3274C39.4333 12.7538 40.4783 14.3547 41.2666 16.0713Z" fill="#729592"/>
</g>
<defs>
<clipPath id="clip0_0_1">
<rect width="48" height="48" fill="white"/>
</clipPath>
</defs>
</svg>
