<svg width="590" height="521" viewBox="0 0 590 521" fill="none" xmlns="http://www.w3.org/2000/svg">
<g filter="url(#filter0_f_9_357)">
<g clip-path="url(#clip0_9_357)">
<path fill-rule="evenodd" clip-rule="evenodd" d="M295 421C402.696 421 490 336.382 490 232C490 127.618 402.696 43 295 43C187.304 43 100 127.618 100 232C100 336.382 187.304 421 295 421ZM456.721 190.789C461.062 206.793 448.384 221.264 431.856 222.421L349.466 228.188C325.862 229.84 313.489 256.883 327.63 275.915L374.29 338.712C384.385 352.299 381.363 371.754 366.007 378.734C342.183 389.564 315.918 394.853 289.329 393.979C252.336 392.762 216.806 379.684 188.306 356.793C159.806 333.903 139.947 302.494 131.842 267.49C123.736 232.486 127.843 195.865 143.517 163.366C159.192 130.866 185.549 104.326 218.457 87.9047C251.366 71.4831 288.965 66.1083 325.364 72.6226C361.762 79.1369 394.902 97.1721 419.589 123.902C437.356 143.137 450.022 166.093 456.721 190.789Z" fill="#729592"/>
</g>
</g>
<defs>
<filter id="filter0_f_9_357" x="0" y="-57" width="590" height="578" filterUnits="userSpaceOnUse" color-interpolation-filters="sRGB">
<feFlood flood-opacity="0" result="BackgroundImageFix"/>
<feBlend mode="normal" in="SourceGraphic" in2="BackgroundImageFix" result="shape"/>
<feGaussianBlur stdDeviation="50" result="effect1_foregroundBlur_9_357"/>
</filter>
<clipPath id="clip0_9_357">
<rect width="390" height="378" fill="white" transform="translate(100 43)"/>
</clipPath>
</defs>
</svg>
