<svg width="37" height="37" viewBox="0 0 37 37" fill="none" xmlns="http://www.w3.org/2000/svg">
<g clip-path="url(#clip0_9_126)">
<path fill-rule="evenodd" clip-rule="evenodd" d="M18.5 37C28.7173 37 37 28.7173 37 18.5C37 8.28273 28.7173 0 18.5 0C8.28273 0 0 8.28273 0 18.5C0 28.7173 8.28273 37 18.5 37ZM32.9169 11.8799C34.2271 14.7333 31.7842 17.5406 28.6524 17.7668C24.2152 18.0873 21.8486 23.1498 24.4484 26.7598C26.2834 29.3078 25.6962 32.9826 22.6665 33.8073C21.1447 34.2215 19.5595 34.4093 17.962 34.355C14.4524 34.2359 11.0816 32.9558 8.37772 30.7152C5.67386 28.4746 3.78982 25.4002 3.02086 21.9739C2.25191 18.5476 2.6415 14.9629 4.12858 11.7818C5.61567 8.60067 8.11619 6.00283 11.2383 4.39543C14.3603 2.78803 17.9275 2.26193 21.3807 2.89957C24.8339 3.53721 27.9779 5.30256 30.32 7.91894C31.3862 9.10991 32.2587 10.4466 32.9169 11.8799Z" fill="#729592"/>
</g>
<defs>
<clipPath id="clip0_9_126">
<rect width="37" height="37" fill="white"/>
</clipPath>
</defs>
</svg>
